<?xml version="1.0" standalone="no"?><!DOCTYPE svg PUBLIC "-//W3C//DTD SVG 1.1//EN" "http://www.w3.org/Graphics/SVG/1.1/DTD/svg11.dtd"><svg t="1572054508388" class="icon" viewBox="0 0 1024 1024" version="1.1" xmlns="http://www.w3.org/2000/svg" p-id="17518" xmlns:xlink="http://www.w3.org/1999/xlink" width="128" height="128"><defs><style type="text/css"></style></defs><path d="M512 512m-512 0a512 512 0 1 0 1024 0 512 512 0 1 0-1024 0Z" fill="#E4CE97" p-id="17519"></path><path d="M526.628571 146.285714c195.047619 0 195.047619 146.480762 195.047619 229.278476C721.67619 458.361905 644.934705 611.220724 526.628571 614.4c-115.107352 0-195.047619-152.849067-195.047619-238.83581C331.580952 292.766476 331.580952 146.285714 526.628571 146.285714z m-12.912152 838.704762C368.006095 984.990476 234.973867 917.933105 146.285714 812.558629c12.668343-31.939048 28.50621-67.067124 50.683124-86.211048C244.472686 688.010971 387.013486 624.152381 387.013486 624.152381l88.688152 172.4416 15.837867-41.515886-25.346438-51.102476L516.87619 652.9024l50.683124 51.092724-22.176914 54.281752 12.678095 41.515886 91.847924-169.242819s142.531048 63.85859 190.044648 102.185447c22.176914 15.964648 38.014781 44.704914 47.5136 70.2464C801.938286 914.734324 665.746286 984.990476 513.706667 984.990476z" fill="#BE945D" p-id="17520"></path></svg>