<?xml version="1.0" standalone="no"?><!DOCTYPE svg PUBLIC "-//W3C//DTD SVG 1.1//EN" "http://www.w3.org/Graphics/SVG/1.1/DTD/svg11.dtd"><svg t="1569288664192" class="icon" viewBox="0 0 1024 1024" version="1.1" xmlns="http://www.w3.org/2000/svg" p-id="8042" xmlns:xlink="http://www.w3.org/1999/xlink" width="128" height="128"><defs><style type="text/css"></style></defs><path d="M332.751649 418.62772a3.887417 3.887417 0 0 0 1.386595-0.668536c7.873876-2.921753 15.921076-6.338717 23.794951-9.904246 200.560983-89.36106 230.942257-237.999033 230.942257-237.999033a785.852404 785.852404 0 0 1 106.099236 166.168488c1.089467 2.649386 2.476062 5.274011 3.441726 7.923397a5.447335 5.447335 0 0 0 0.346648 0.866621c-6.561563 108.005803-25.973885 193.677532-72.944772 247.606152a77.599768 77.599768 0 0 0-18.471419 38.057065c314.459812 107.782958 282.96431-114.369281 282.96431-114.369281s-37.140923 75.817004-74.950382 0c-20.229423-40.483606 0-136.926202-39.616984-288.584969-42.811104-163.42006-165.277106-227.475771-264.492891-227.475772s-223.489312 63.510978-264.492891 227.475772c-37.908502 151.634007-17.679079 248.101364-37.908502 288.584969-37.908502 75.817004-76.757907 0-76.757907 0s-31.619306 222.845536 284.747074 113.775027a78.49115 78.49115 0 0 0-18.347616-37.487572c-35.704807-40.954057-55.265693-100.577619-65.61563-174.042364z m584.02863 385.374214c-45.138601-38.700841-151.609247-45.039559-214.897379-45.633813 0 0-76.08937 227.797659-189.814876 227.797659s-189.814876-227.797659-189.814876-227.797659c-63.263372 0.643776-169.734017 6.932972-214.897378 45.633813-61.530129 52.888674-90.500048 219.998066-90.500049 219.998066h990.424606s-28.96992-167.109392-90.500048-219.998066z" p-id="8043" fill="#eeb173"></path></svg>