<?xml version="1.0" standalone="no"?><!DOCTYPE svg PUBLIC "-//W3C//DTD SVG 1.1//EN" "http://www.w3.org/Graphics/SVG/1.1/DTD/svg11.dtd"><svg t="1569230043740" class="icon" viewBox="0 0 1263 1024" version="1.1" xmlns="http://www.w3.org/2000/svg" p-id="9862" xmlns:xlink="http://www.w3.org/1999/xlink" width="157.875" height="128"><defs><style type="text/css"></style></defs><path d="M109.893 620.982c61.182-26.964 122.303-53.936 183.431-80.902 15.279-12.928 30.504-25.855 45.727-38.78l95.156 216.465L518.778 501.3c15.685 13.256 31.427 26.442 47.112 39.695l125.546 53.87c1.568-5.117 3.299-9.648 5.092-13.455 45.502-19.1 86.246-39.689 113.276-46.65 27.61 71.524 69.632 123.748 120.628 164.099 55.733-43.305 96.253-98.686 124.56-163.708 29 5.773 66.271 18.303 96.778 25.914 26.276 54.264 26.966 183.924 25.527 263.44h-388.91c0.988 35.633 0.643 72.505 0 109.708H80.72c-4.803-150.502 3.995-257.792 29.174-313.231z m717.213-292.23c54.766 7.409 160.226-3.356 204.157-22.747 1.737 28.882 2.197 84.972-15.69 127.919-8.389 20.317-20.89 36.406-33.801 48.854l103.315 2.43s-10.356-83.522-7.23-105.172c42.374-296.475-340.754-296.475-298.38 0 3.07 21.647-7.235 105.172-7.235 105.172l104.075-2.489c-12.911-12.389-25.415-28.478-33.806-48.795-13.952-33.515-16.724-74.957-16.438-105.287l1.033 0.115zM297.43 369.964c-5.67-57.709-6.89-98.517 10.709-156.223 66.563-40.635 147.944 25.005 245.998 2.373 9.61 47.985 12.964 88.906 10.07 156.574 0 0 38.148-32.821 43.47-60.895 5.381-28.072-4.688-152.924-18.118-172.894-53.943-80.11-252.827-82.655-311.983-13.66-15.972 18.696-34.322 189.275-16.96 211.966 17.423 22.744 36.814 32.76 36.814 32.76z" fill="#FDA416" p-id="9863"></path></svg>