<?xml version="1.0" standalone="no"?><!DOCTYPE svg PUBLIC "-//W3C//DTD SVG 1.1//EN" "http://www.w3.org/Graphics/SVG/1.1/DTD/svg11.dtd"><svg t="1572052576938" class="icon" viewBox="0 0 1412 1024" version="1.1" xmlns="http://www.w3.org/2000/svg" p-id="12906" xmlns:xlink="http://www.w3.org/1999/xlink" width="176.5" height="128"><defs><style type="text/css"></style></defs><path d="M456.149276 653.871921c180.239439 0 326.888192-146.686968 326.888192-326.964621S636.388715 0 456.149276 0 129.203762 146.706076 129.203762 327.002836s146.686968 326.869085 326.945514 326.869085zM739.835796 0v48.742797s64.544559 56.194656 95.536648 147.279296h430.258844v81.320794H851.70921a476.708763 476.708763 0 0 1-7.948649 146.17107h421.870727v81.320794H818.022989c-29.176892 68.32781-65.480818 104.937453-65.480819 104.937454s105.243171 72.378564 165.947157 172.367219c78.340051 129.031796 76.295567 235.574265 76.295566 235.574265l413.004926 3.018958V0z m525.795492 707.964771H924.412599v-81.359009h341.218689z m-427.048813 107.440513c-56.634124-93.01448-155.247052-160.501567-184.80609-179.341394a326.104792 326.104792 0 0 1-395.273325 0c-29.559039 18.858934-128.191073 86.326914-184.825198 179.341394C8.216152 922.884013 0.420361 987.963577 0.229288 990.676817a24.266308 24.266308 0 0 0 21.419316 26.750262c0.955366 0.095537 1.910733 0.210181 2.78967 0.21018s1.375728 0 2.063592-0.095536h858.874459a21.954322 21.954322 0 0 0 2.541275 0.133751 24.97328 24.97328 0 0 0 2.71324-0.133751 24.361845 24.361845 0 0 0 21.553068-26.884013c-0.267503-2.713241-8.0824-67.811912-73.525004-175.29064z m0 0" p-id="12907" fill="#13227a"></path></svg>