<?xml version="1.0" standalone="no"?><!DOCTYPE svg PUBLIC "-//W3C//DTD SVG 1.1//EN" "http://www.w3.org/Graphics/SVG/1.1/DTD/svg11.dtd"><svg t="1569230139148" class="icon" viewBox="0 0 1024 1024" version="1.1" xmlns="http://www.w3.org/2000/svg" p-id="13475" xmlns:xlink="http://www.w3.org/1999/xlink" width="128" height="128"><defs><style type="text/css"></style></defs><path d="M355.125625 427.975305c21.655206 21.663392 47.619554 39.010479 75.92318 50.733475 28.303626 11.721973 58.926064 17.814738 89.559758 17.814738 30.636764 0 61.260226-6.092765 89.563852-17.814738 28.302603-11.722996 54.265928-29.070082 75.92318-50.733475 21.664416-21.657252 39.010479-47.620577 50.732451-75.92318 11.722996-28.30158 17.814738-58.928111 17.814738-89.557712 0-30.637788-6.091742-61.262272-17.814738-89.563852-11.721973-28.304649-29.068036-54.261834-50.732451-75.925227-21.657252-21.663392-47.620577-39.009456-75.92318-50.732451-28.303626-11.722996-58.927087-17.815761-89.563852-17.815761-30.632671 0-61.256132 6.093788-89.559758 17.815761-28.303626 11.722996-54.267974 29.068036-75.92318 50.732451-21.664416 21.663392-39.010479 47.620577-50.733475 75.925227-11.722996 28.30158-17.817808 58.926064-17.817808 89.563852 0 30.629601 6.094812 61.256132 17.817808 89.557712C316.115146 380.354727 333.461209 406.317029 355.125625 427.975305z" p-id="13476" fill="#1296db"></path><path d="M511.999488 569.911968c-212.83234 0-385.365858 172.533518-385.365858 385.365858 0 2.286066 0.046049 4.561899 0.085958 6.839779l770.5598 0c0.039909-2.27788 0.086981-4.552689 0.086981-6.839779C897.36637 742.445486 724.832851 569.911968 511.999488 569.911968z" p-id="13477" fill="#1296db"></path></svg>